# xmcd
#
# Track frame offsets:
# 150
# 11286
# 25679
# 41898
# 55581
# 72304
# 85561
# 101594
# 119527
# 135901
# 157385
# 175368
# 201193
#
# Disc length: 3195 seconds
#
#
# Revision: 0
# Processed by: cddbd v1.5.1PL0 Copyright (c) Steve Scherf et al.
# Submitted via: FreeRIP 2.51 
#
DISCID=a80c790d
DTITLE=Full Throttle - Full Throttle
DYEAR=1900
DGENRE=
TTITLE0=Tear It Up
TTITLE1=Somewhere Texas
TTITLE2=Comin' Home
TTITLE3=Away From Me
TTITLE4=On My Mind
TTITLE5=Living Hand By Hand
TTITLE6=All Alone Tonight
TTITLE7=Set Your Soul Free
TTITLE8=Bye Baby Good-bye
TTITLE9=Until Then
TTITLE10=Lost In Texas
TTITLE11=Love You Just Right
TTITLE12=Devil's Door
EXTD=
EXTT0=
EXTT1=
EXTT2=
EXTT3=
EXTT4=
EXTT5=
EXTT6=
EXTT7=
EXTT8=
EXTT9=
EXTT10=
EXTT11=
EXTT12=
PLAYORDER=
